 <svg  version="1.0" xmlns="http://www.w3.org/2000/svg"  width="900.000000pt" height="714.000000pt" viewBox="0 0 900.000000 714.000000"  preserveAspectRatio="xMidYMid meet">  <g transform="translate(0.000000,714.000000) scale(0.100000,-0.100000)" fill="#88288f" stroke="none"> <path d="M3520 6738 c-249 -13 -525 -37 -650 -57 -36 -6 -94 -15 -130 -21 -89 -13 -153 -26 -230 -45 -36 -9 -83 -20 -105 -24 -147 -30 -255 -70 -430 -159 -201 -103 -301 -178 -512 -387 -106 -104 -193 -197 -193 -205 0 -8 -32 -48 -70 -88 -39 -40 -70 -78 -70 -84 0 -5 -20 -33 -45 -60 -25 -28 -45 -55 -45 -62 0 -6 -16 -28 -35 -50 -19 -21 -35 -43 -35 -50 0 -6 -18 -35 -40 -63 -22 -29 -48 -70 -60 -92 -11 -22 -24 -43 -30 -46 -6 -4 -53 -92 -105 -196 -53 -104 -104 -198 -115 -209 -11 -11 -20 -28 -20 -38 0 -11 -9 -27 -21 -38 -23 -20 -30 -33 -96 -164 -24 -46 -43 -92 -43 -102 0 -10 -6 -34 -14 -53 -27 -64 -35 -213 -42 -778 -5 -448 -4 -570 6 -582 7 -9 14 -36 16 -61 2 -25 6 -50 10 -55 3 -6 -4 -21 -16 -34 -22 -23 -22 -25 -5 -51 9 -14 15 -35 12 -45 -3 -10 -1 -22 4 -25 5 -3 9 -16 9 -29 0 -29 22 -114 45 -175 10 -25 16 -68 16 -97 -2 -56 11 -93 33 -93 10 0 16 -21 21 -75 4 -41 10 -77 14 -79 12 -8 115 -8 144 0 19 4 33 2 45 -10 14 -12 43 -16 120 -18 70 -1 106 -6 114 -15 12 -15 124 -18 133 -3 7 12 44 -5 61 -28 8 -12 36 -15 128 -15 90 0 119 -3 123 -13 6 -17 27 -18 53 -2 15 10 24 9 44 -1 20 -11 28 -11 40 -2 8 7 12 19 9 27 -11 29 40 14 75 -22 36 -37 51 -40 33 -6 -6 12 -11 32 -11 46 0 14 -4 28 -10 31 -5 3 -10 20 -10 37 0 17 -7 40 -16 50 -14 15 -15 20 -3 34 11 14 11 18 -2 28 -16 11 -33 56 -34 91 -2 37 -17 100 -31 132 -8 17 -14 42 -14 55 0 13 -5 39 -10 58 -21 68 -32 126 -45 230 -8 58 -19 128 -25 155 -6 29 -12 161 -13 310 -1 210 2 283 17 380 10 66 22 145 26 176 9 70 28 152 46 202 8 20 14 49 14 63 0 15 16 79 36 143 103 333 241 601 465 901 223 299 525 574 839 764 265 160 548 277 845 349 33 8 80 20 105 26 25 7 80 16 122 21 43 5 82 11 88 15 5 3 56 10 112 15 57 4 165 14 241 21 138 12 182 10 517 -21 137 -13 357 -59 485 -102 17 -5 44 -14 60 -18 217 -61 542 -214 750 -354 59 -40 215 -155 225 -166 3 -3 43 -39 90 -79 92 -79 243 -232 320 -323 27 -31 58 -67 69 -79 36 -39 23 -54 -30 -38 -19 6 -70 15 -114 19 -44 4 -105 12 -135 18 -81 16 -184 32 -280 43 -47 5 -98 13 -115 18 -16 6 -52 11 -80 13 l-50 3 3 -85 c4 -112 -14 -266 -36 -304 -14 -23 -30 -33 -72 -44 -99 -25 -163 10 -205 111 -10 25 -15 70 -15 148 0 95 3 118 22 156 13 27 18 47 12 53 -5 5 -124 12 -264 15 -140 3 -283 10 -318 16 -111 17 -215 -12 -198 -56 5 -15 9 -15 23 -4 15 13 15 10 9 -26 -5 -22 -7 -115 -7 -207 1 -112 -2 -168 -9 -168 -16 0 -12 -27 6 -34 12 -5 15 -23 13 -98 -3 -139 -17 -164 -19 -33 -1 67 -5 102 -9 90 -11 -27 -1 -228 11 -236 7 -4 9 -69 7 -175 -2 -93 0 -175 4 -181 14 -22 48 -14 84 17 18 17 38 30 43 30 5 0 25 11 44 24 19 13 55 27 78 30 30 5 47 13 53 27 11 23 61 57 70 47 4 -3 1 -24 -4 -46 -9 -33 -15 -39 -31 -35 -23 6 -23 13 -10 -101 6 -49 8 -98 4 -110 -7 -21 -7 -21 -15 2 -5 12 -6 30 -2 40 5 13 3 14 -6 6 -12 -11 -13 -30 -12 -179 1 -27 -3 -59 -8 -70 -6 -11 -13 -47 -17 -80 -4 -33 -9 -53 -11 -45 -14 46 -14 46 -22 30 -5 -8 -11 -39 -15 -68 -5 -40 -4 -52 5 -47 8 6 10 -9 5 -56 -3 -35 -9 -108 -14 -161 -4 -54 -11 -101 -15 -104 -4 -4 -7 36 -7 89 0 53 -4 98 -9 101 -12 8 -31 -73 -31 -133 0 -27 -5 -62 -11 -78 -11 -28 -22 -125 -38 -328 -5 -60 -12 -125 -16 -143 -7 -29 -5 -33 11 -30 18 3 19 -3 16 -75 -5 -96 3 -107 72 -107 28 0 66 -4 85 -10 22 -6 49 -6 77 0 47 11 600 15 627 4 11 -4 15 -14 12 -28 -2 -11 -6 -178 -9 -369 -4 -295 -7 -352 -20 -372 -20 -31 -20 -52 0 -63 13 -7 13 -13 3 -35 -9 -21 -20 -27 -53 -29 -22 -2 -66 3 -96 11 -34 8 -86 11 -135 9 -44 -3 -92 -1 -107 4 -18 7 -39 6 -61 -1 -27 -9 -41 -8 -70 4 -32 13 -37 20 -37 47 0 17 -8 40 -17 51 -16 17 -18 54 -23 373 -5 377 -5 373 -52 374 -17 0 -18 -23 -18 -342 0 -193 -5 -362 -11 -387 -7 -31 -6 -52 3 -77 6 -18 10 -36 7 -38 -8 -8 -290 -19 -544 -21 -132 -1 -256 -5 -276 -8 -20 -4 -53 -23 -75 -42 l-39 -35 4 -312 c2 -172 6 -320 10 -328 9 -20 6 -133 -4 -149 -4 -7 -7 -135 -6 -285 1 -149 -1 -317 -4 -374 -6 -93 6 -299 22 -359 l5 -23 1514 0 1513 0 -6 502 c-3 277 -6 652 -7 833 -1 297 -3 332 -18 355 -11 15 -18 43 -18 71 0 56 -18 93 -65 137 l-35 34 -247 -1 c-135 -1 -249 -4 -253 -6 -8 -5 -341 -17 -427 -15 -51 1 -75 -11 -51 -27 7 -4 128 -8 268 -9 380 -2 437 -3 420 -13 -8 -5 -141 -8 -294 -8 -283 2 -296 1 -308 -35 -3 -8 -19 -4 -50 15 -26 15 -52 27 -58 27 -7 0 -28 13 -47 30 -18 16 -42 30 -53 30 -11 0 -37 7 -59 16 -33 13 -40 20 -39 42 0 15 -5 47 -13 72 -9 34 -12 127 -10 378 2 305 1 335 -15 353 -13 15 -14 19 -3 19 8 0 58 7 113 14 129 19 135 24 114 113 -28 117 -98 425 -114 503 -9 41 -20 95 -26 120 -5 25 -14 68 -18 95 -4 28 -17 95 -28 150 -12 55 -26 125 -32 155 -5 30 -17 87 -26 125 -8 39 -19 105 -24 147 -5 43 -13 92 -19 110 -14 46 -31 123 -42 193 -5 33 -13 73 -18 90 -13 42 -31 117 -34 135 -1 11 9 16 36 18 22 2 37 8 37 16 0 8 12 16 28 19 41 7 96 31 105 45 4 6 13 12 19 12 16 0 97 40 104 51 3 5 13 9 24 9 10 0 20 7 24 15 3 8 11 15 18 15 7 0 38 12 68 26 30 14 69 32 85 39 17 7 46 20 65 28 19 9 94 37 165 62 130 46 181 65 242 91 18 7 39 11 47 8 39 -15 273 -431 332 -590 6 -16 16 -45 23 -64 29 -77 90 -290 106 -365 9 -44 23 -107 30 -140 38 -163 48 -288 49 -585 1 -318 -3 -391 -29 -515 -9 -44 -20 -109 -25 -145 -5 -36 -15 -83 -21 -105 -6 -22 -14 -67 -18 -100 -4 -33 -15 -78 -26 -100 -11 -21 -18 -51 -17 -65 2 -15 -4 -32 -13 -40 -9 -8 -12 -17 -7 -24 5 -6 12 -23 16 -39 7 -30 40 -38 50 -11 9 24 27 6 20 -22 -5 -21 -3 -24 20 -24 22 0 26 5 27 28 0 27 0 27 10 3 8 -19 12 -21 24 -11 8 7 15 23 15 35 0 30 21 37 56 18 18 -9 57 -15 103 -16 60 0 75 3 83 17 8 15 18 17 54 11 42 -6 44 -5 44 19 0 39 17 73 39 79 19 5 20 8 10 31 -13 27 1 56 25 56 18 0 46 71 46 116 0 48 22 114 42 125 10 6 14 18 10 34 -3 18 2 33 18 50 19 21 22 31 16 71 -5 40 -3 47 14 51 11 3 20 8 20 12 2 87 10 164 18 174 11 14 25 123 27 212 1 33 7 73 13 88 7 16 12 66 12 113 0 46 4 84 9 84 5 0 10 96 10 220 1 176 -1 226 -14 256 -9 22 -15 67 -15 113 0 42 -7 98 -15 125 -8 27 -15 86 -15 132 0 45 -5 95 -11 111 -6 15 -12 60 -14 98 -6 151 -71 272 -224 416 -105 101 -108 103 -373 301 -230 173 -330 244 -383 274 -16 9 -39 24 -50 33 -11 10 -65 44 -120 76 -55 32 -113 67 -130 79 -46 32 -656 336 -674 336 -9 0 -43 13 -76 28 -62 30 -245 93 -325 112 -25 7 -90 22 -145 35 -92 22 -358 109 -516 168 -79 30 -250 70 -354 83 -16 2 -106 12 -200 24 -93 11 -217 23 -275 25 -58 3 -118 8 -135 12 -54 11 -517 18 -665 11z m2031 -1381 c48 -47 68 -77 83 -127 20 -68 30 -185 22 -254 -13 -100 -85 -155 -197 -147 -25 2 -80 62 -104 116 -27 60 -37 161 -26 267 7 65 13 81 38 108 40 43 70 58 119 59 30 1 47 -5 65 -22z m-291 -2039 c0 -94 -9 -143 -23 -122 -8 14 5 224 14 224 5 0 9 -46 9 -102z m163 -1316 c-6 -148 -4 -142 -39 -142 -25 0 -33 -5 -38 -24 -8 -31 3 -83 20 -97 8 -6 14 -20 14 -30 0 -15 -8 -19 -40 -19 -35 0 -40 3 -40 24 0 13 7 29 15 36 21 18 19 64 -5 85 -14 13 -28 16 -53 11 -35 -7 -67 0 -67 14 0 11 102 19 119 10 9 -5 29 -1 47 8 32 15 33 17 39 99 5 60 11 81 18 74 6 -6 10 -28 10 -49z m685 -6 c2 -15 1 -35 -3 -44 -11 -29 -34 8 -28 46 6 39 27 37 31 -2z m-469 -123 c22 -10 42 -26 45 -37 7 -27 -1 -33 -22 -18 -9 7 -32 22 -49 33 -18 12 -30 25 -27 30 7 12 7 12 53 -8z m-472 -7 c4 -3 3 -9 -1 -13 -8 -9 -590 -5 -636 4 l-35 7 35 7 c44 7 629 3 637 -5z m843 -17 c0 -35 -3 -35 -47 -8 -29 18 -38 19 -63 9 -42 -17 -107 0 -85 22 3 3 48 5 100 5 l95 0 0 -28z m1253 14 c4 -2 7 -13 7 -24 0 -22 -22 -25 -39 -5 -7 8 -24 17 -39 21 -25 7 -25 8 -7 15 18 7 59 4 78 -7z m112 -5 c10 -13 20 -41 22 -63 1 -22 4 -49 5 -60 3 -20 -21 -31 -47 -21 -12 4 -11 12 5 48 l19 43 -30 31 c-28 29 -29 44 -5 44 7 0 20 -10 31 -22z m-1605 4 c0 -4 -16 -6 -35 -4 -19 2 -35 6 -35 8 0 2 16 4 35 4 19 0 35 -4 35 -8z m780 -72 c0 -5 3 -15 6 -24 8 -21 -13 -21 -54 0 -38 18 -41 31 -9 36 28 5 57 -2 57 -12z m-803 -27 c9 -25 14 -27 74 -29 35 -2 74 2 87 8 17 9 28 8 47 -2 14 -7 24 -15 22 -17 -2 -1 -51 -5 -108 -8 -97 -5 -107 -4 -132 15 -29 23 -37 60 -13 60 8 0 18 -12 23 -27z m353 -18 l34 -35 -31 0 c-18 0 -43 4 -57 10 -23 8 -25 12 -14 35 15 33 28 32 68 -10z m1176 9 c4 -14 3 -29 -2 -32 -5 -4 -128 -5 -274 -2 -146 3 -260 8 -255 12 15 9 403 12 443 3 20 -5 32 -4 32 3 0 13 28 42 41 42 5 0 12 -12 15 -26z m-606 -24 c11 -7 3 -10 -28 -10 -26 0 -41 4 -37 10 8 13 45 13 65 0z m-1408 -14 c4 -6 8 -13 8 -17 0 -3 -108 -6 -241 -7 -193 -2 -240 0 -237 10 3 9 24 13 61 13 31 1 60 4 64 9 12 12 337 5 345 -8z m-670 -103 c3 -10 -2 -52 -10 -93 -9 -47 -15 -155 -17 -293 -1 -120 -5 -221 -9 -224 -6 -7 -7 0 -13 222 -6 223 -6 227 1 295 10 89 36 139 48 93z m-24 -858 c1 -40 -3 -63 -8 -60 -6 3 -10 35 -10 71 0 36 4 63 9 60 4 -3 9 -35 9 -71z m1 -102 c0 -10 -4 -27 -9 -38 -7 -16 -9 -13 -9 18 -1 20 4 37 9 37 6 0 10 -8 9 -17z m1 -151 c0 -39 -3 -53 -10 -46 -14 14 -24 79 -16 99 12 32 26 3 26 -53z m-80 -196 c0 -73 -4 -127 -10 -131 -6 -4 -10 40 -10 124 0 81 4 131 10 131 6 0 10 -48 10 -124z m104 52 c9 -78 7 -296 -3 -302 -9 -6 -21 137 -21 266 0 97 14 118 24 36z"/> <path d="M5340 4095 c0 -19 5 -35 10 -35 6 0 10 16 10 35 0 19 -4 35 -10 35 -5 0 -10 -16 -10 -35z"/> <path d="M5140 2910 c-15 -35 -7 -63 17 -58 9 2 16 6 15 11 -1 4 -2 23 -2 42 0 43 -13 45 -30 5z"/> <path d="M7387 2303 c-11 -10 -8 -41 4 -49 16 -10 29 9 23 34 -6 22 -15 27 -27 15z"/> <path d="M4524 1998 c-6 -9 258 -15 401 -8 61 3 105 8 99 12 -15 10 -494 6 -500 -4z"/> <path d="M3499 609 c-10 -6 -7 -9 14 -9 29 0 35 5 14 13 -8 3 -20 1 -28 -4z"/> </g> </svg> 